<svg width="120" height="60" viewBox="0 0 120 60" xmlns="http://www.w3.org/2000/svg"><rect width="120" height="60" fill="#E05A47" rx="8"/><circle cx="25" cy="20" r="8" fill="#9B3E29"/><rect x="17" y="28" width="16" height="20" fill="#000000" rx="2"/><rect x="15" y="30" width="20" height="12" fill="#FFDE59" rx="2"/><path d="M17 15 Q25 10 33 15 Q33 20 25 18 Q17 20 17 15" fill="#000000"/><circle cx="50" cy="35" r="6" fill="#FFDE59"/><rect x="47" y="29" width="6" height="6" fill="#E05A47"/><circle cx="50" cy="29" r="2" fill="#FFFFFF"/><circle cx="65" cy="40" r="5" fill="#FFDE59"/><rect x="63" y="35" width="4" height="5" fill="#9B3E29"/><circle cx="65" cy="35" r="1.5" fill="#FFFFFF"/><circle cx="80" cy="38" r="5" fill="#FFDE59"/><rect x="78" y="33" width="4" height="5" fill="#5E0214"/><circle cx="80" cy="33" r="1.5" fill="#FFFFFF"/><text x="15" y="55" font-family="cursive" font-size="8" fill="#FFFFFF" font-weight="bold">iv_sweets</text><text x="70" y="55" font-family="cursive" font-size="6" fill="#FFFFFF">e aí? docinho?</text></svg>
